<svg width="40" height="34" viewBox="0 0 40 34" fill="none" xmlns="http://www.w3.org/2000/svg">
<path d="M12.5 0L15.9415 3.19155L20.6317 3.36827L20.8084 8.05853L24 11.5L20.8084 14.9415L20.6317 19.6317L15.9415 19.8084L12.5 23L9.05853 19.8084L4.36827 19.6317L4.19155 14.9415L1 11.5L4.19155 8.05853L4.36827 3.36827L9.05853 3.19155L12.5 0Z" fill="#FF9800"/>
<circle cx="12.5" cy="11.5" r="6.5" fill="#FFE537"/>
<path d="M26.0709 25.9997C26.0473 25.9999 26.0237 26 26 26C23.2076 26 20.7494 24.5693 19.3183 22.401C18.4418 24.1555 16.7952 25.458 14.8214 25.8656C14.9383 26.3917 15 26.9387 15 27.5C15 30.2785 13.4891 32.704 11.2442 34H3.75583C1.51086 32.704 0 30.2785 0 27.5C0 23.5191 3.10159 20.2625 7.02011 20.0151C7.00679 19.8452 7 19.6734 7 19.5C7 15.9101 9.91015 13 13.5 13C15.491 13 17.273 13.8952 18.4653 15.305C19.5715 12.2126 22.5273 10 26 10C30.4183 10 34 13.5817 34 18C34 18.7045 33.9089 19.3876 33.738 20.0384C37.2571 20.4072 40 23.3833 40 27C40 30.866 36.866 34 33 34C29.134 34 26 30.866 26 27C26 26.6604 26.0242 26.3264 26.0709 25.9997Z" fill="#BBDEFB"/>
<path d="M9 20H33V34H9V20Z" fill="#BBDEFB"/>
</svg>
